<mxfile host="65bd71144e">
    <diagram id="tIR7VutWKW63u8cjQVMg" name="Page-1">
        <mxGraphModel dx="678" dy="558" grid="1" gridSize="10" guides="1" tooltips="1" connect="1" arrows="1" fold="1" page="1" pageScale="1" pageWidth="827" pageHeight="1169" math="0" shadow="0">
            <root>
                <mxCell id="0"/>
                <mxCell id="1" parent="0"/>
                <mxCell id="2" value="&lt;span style=&quot;color: rgb(232, 230, 227); font-family: &amp;quot;Söhne Mono&amp;quot;, Monaco, &amp;quot;Andale Mono&amp;quot;, &amp;quot;Ubuntu Mono&amp;quot;, monospace; font-size: 14px; font-weight: 400; text-align: left; background-color: rgb(0, 0, 0);&quot;&gt; users  &lt;/span&gt;" style="swimlane;whiteSpace=wrap;html=1;" vertex="1" parent="1">
                    <mxGeometry x="250" y="50" width="200" height="200" as="geometry"/>
                </mxCell>
                <mxCell id="3" value="&lt;span style=&quot;color: rgb(232, 230, 227); font-family: &amp;quot;Söhne Mono&amp;quot;, Monaco, &amp;quot;Andale Mono&amp;quot;, &amp;quot;Ubuntu Mono&amp;quot;, monospace; font-size: 14px; text-align: left; background-color: rgb(0, 0, 0);&quot;&gt; id (PK)&lt;br&gt;&lt;br&gt;email&lt;br&gt;&lt;br&gt;password&lt;br&gt;&lt;br&gt;name  &lt;/span&gt;" style="text;html=1;align=center;verticalAlign=middle;resizable=0;points=[];autosize=1;strokeColor=none;fillColor=none;" vertex="1" parent="2">
                    <mxGeometry x="55" y="35" width="90" height="130" as="geometry"/>
                </mxCell>
                <mxCell id="4" value="Comments" style="swimlane;whiteSpace=wrap;html=1;" vertex="1" parent="1">
                    <mxGeometry x="413" y="320" width="200" height="200" as="geometry"/>
                </mxCell>
                <mxCell id="5" value="&lt;span style=&quot;color: rgb(232, 230, 227); font-family: &amp;quot;Söhne Mono&amp;quot;, Monaco, &amp;quot;Andale Mono&amp;quot;, &amp;quot;Ubuntu Mono&amp;quot;, monospace; font-size: 14px; text-align: left; background-color: rgb(0, 0, 0);&quot;&gt;id (PK) &lt;br&gt;&lt;br&gt;&lt;/span&gt;&lt;span style=&quot;color: rgb(232, 230, 227); font-family: &amp;quot;Söhne Mono&amp;quot;, Monaco, &amp;quot;Andale Mono&amp;quot;, &amp;quot;Ubuntu Mono&amp;quot;, monospace; font-size: 14px; text-align: left; background-color: rgb(0, 0, 0);&quot;&gt;post_id &lt;br&gt;&lt;br&gt;&lt;/span&gt;&lt;span style=&quot;color: rgb(232, 230, 227); font-family: &amp;quot;Söhne Mono&amp;quot;, Monaco, &amp;quot;Andale Mono&amp;quot;, &amp;quot;Ubuntu Mono&amp;quot;, monospace; font-size: 14px; text-align: left; background-color: rgb(0, 0, 0);&quot;&gt;author_id&lt;br&gt;&lt;br&gt;&lt;/span&gt;&lt;span style=&quot;color: rgb(232, 230, 227); font-family: &amp;quot;Söhne Mono&amp;quot;, Monaco, &amp;quot;Andale Mono&amp;quot;, &amp;quot;Ubuntu Mono&amp;quot;, monospace; font-size: 14px; text-align: left; background-color: rgb(0, 0, 0);&quot;&gt;text &lt;br&gt;&lt;/span&gt;&lt;span style=&quot;color: rgb(232, 230, 227); font-family: &amp;quot;Söhne Mono&amp;quot;, Monaco, &amp;quot;Andale Mono&amp;quot;, &amp;quot;Ubuntu Mono&amp;quot;, monospace; font-size: 14px; text-align: left; background-color: rgb(0, 0, 0);&quot;&gt;&lt;br&gt;&lt;/span&gt;&lt;span style=&quot;color: rgb(232, 230, 227); font-family: &amp;quot;Söhne Mono&amp;quot;, Monaco, &amp;quot;Andale Mono&amp;quot;, &amp;quot;Ubuntu Mono&amp;quot;, monospace; font-size: 14px; text-align: left; background-color: rgb(0, 0, 0);&quot;&gt;&lt;br&gt;&lt;/span&gt;" style="text;html=1;align=center;verticalAlign=middle;resizable=0;points=[];autosize=1;strokeColor=none;fillColor=none;" vertex="1" parent="4">
                    <mxGeometry x="50" y="40" width="100" height="160" as="geometry"/>
                </mxCell>
                <mxCell id="6" value="&lt;span style=&quot;color: rgb(232, 230, 227); font-family: &amp;quot;Söhne Mono&amp;quot;, Monaco, &amp;quot;Andale Mono&amp;quot;, &amp;quot;Ubuntu Mono&amp;quot;, monospace; font-size: 14px; font-weight: 400; text-align: left; background-color: rgb(0, 0, 0);&quot;&gt;blog_posts &lt;/span&gt;" style="swimlane;whiteSpace=wrap;html=1;" vertex="1" parent="1">
                    <mxGeometry x="100" y="320" width="200" height="200" as="geometry"/>
                </mxCell>
                <mxCell id="7" value="&lt;span style=&quot;color: rgb(232, 230, 227); font-family: &amp;quot;Söhne Mono&amp;quot;, Monaco, &amp;quot;Andale Mono&amp;quot;, &amp;quot;Ubuntu Mono&amp;quot;, monospace; font-size: 14px; text-align: left; background-color: rgb(0, 0, 0);&quot;&gt;id (PK)&lt;br&gt;&lt;/span&gt;&lt;span style=&quot;color: rgb(232, 230, 227); font-family: &amp;quot;Söhne Mono&amp;quot;, Monaco, &amp;quot;Andale Mono&amp;quot;, &amp;quot;Ubuntu Mono&amp;quot;, monospace; font-size: 14px; text-align: left; background-color: rgb(0, 0, 0);&quot;&gt;author_id&lt;br&gt;&lt;/span&gt;&lt;span style=&quot;color: rgb(232, 230, 227); font-family: &amp;quot;Söhne Mono&amp;quot;, Monaco, &amp;quot;Andale Mono&amp;quot;, &amp;quot;Ubuntu Mono&amp;quot;, monospace; font-size: 14px; text-align: left; background-color: rgb(0, 0, 0);&quot;&gt;title&lt;br&gt;&lt;/span&gt;&lt;span style=&quot;color: rgb(232, 230, 227); font-family: &amp;quot;Söhne Mono&amp;quot;, Monaco, &amp;quot;Andale Mono&amp;quot;, &amp;quot;Ubuntu Mono&amp;quot;, monospace; font-size: 14px; text-align: left; background-color: rgb(0, 0, 0);&quot;&gt; body&lt;/span&gt;&lt;span style=&quot;color: rgb(232, 230, 227); font-family: &amp;quot;Söhne Mono&amp;quot;, Monaco, &amp;quot;Andale Mono&amp;quot;, &amp;quot;Ubuntu Mono&amp;quot;, monospace; font-size: 14px; text-align: left; background-color: rgb(0, 0, 0);&quot;&gt;&lt;br&gt;&lt;/span&gt;&lt;span style=&quot;color: rgb(232, 230, 227); font-family: &amp;quot;Söhne Mono&amp;quot;, Monaco, &amp;quot;Andale Mono&amp;quot;, &amp;quot;Ubuntu Mono&amp;quot;, monospace; font-size: 14px; text-align: left; background-color: rgb(0, 0, 0);&quot;&gt;subtitle&lt;br&gt;&lt;/span&gt;&lt;span style=&quot;color: rgb(244, 168, 43); font-family: &amp;quot;Söhne Mono&amp;quot;, Monaco, &amp;quot;Andale Mono&amp;quot;, &amp;quot;Ubuntu Mono&amp;quot;, monospace; font-size: 14px; text-align: left; background-color: rgb(0, 0, 0);&quot;&gt;date&lt;br&gt;&lt;/span&gt;&lt;span style=&quot;color: rgb(232, 230, 227); font-family: &amp;quot;Söhne Mono&amp;quot;, Monaco, &amp;quot;Andale Mono&amp;quot;, &amp;quot;Ubuntu Mono&amp;quot;, monospace; font-size: 14px; text-align: left; background-color: rgb(0, 0, 0);&quot;&gt;body&lt;/span&gt;&lt;span style=&quot;color: rgb(244, 168, 43); font-family: &amp;quot;Söhne Mono&amp;quot;, Monaco, &amp;quot;Andale Mono&amp;quot;, &amp;quot;Ubuntu Mono&amp;quot;, monospace; font-size: 14px; text-align: left; background-color: rgb(0, 0, 0);&quot;&gt;&lt;br&gt;&lt;/span&gt;&lt;span style=&quot;color: rgb(232, 230, 227); font-family: &amp;quot;Söhne Mono&amp;quot;, Monaco, &amp;quot;Andale Mono&amp;quot;, &amp;quot;Ubuntu Mono&amp;quot;, monospace; font-size: 14px; text-align: left; background-color: rgb(0, 0, 0);&quot;&gt;img_url&lt;/span&gt;&lt;span style=&quot;color: rgb(232, 230, 227); font-family: &amp;quot;Söhne Mono&amp;quot;, Monaco, &amp;quot;Andale Mono&amp;quot;, &amp;quot;Ubuntu Mono&amp;quot;, monospace; font-size: 14px; text-align: left; background-color: rgb(0, 0, 0);&quot;&gt;&lt;br&gt;&lt;/span&gt;" style="text;html=1;align=center;verticalAlign=middle;resizable=0;points=[];autosize=1;strokeColor=none;fillColor=none;" vertex="1" parent="6">
                    <mxGeometry x="40" y="40" width="100" height="150" as="geometry"/>
                </mxCell>
                <mxCell id="8" value="&lt;span style=&quot;color: rgb(232, 230, 227); font-family: &amp;quot;Söhne Mono&amp;quot;, Monaco, &amp;quot;Andale Mono&amp;quot;, &amp;quot;Ubuntu Mono&amp;quot;, monospace; font-size: 14px; font-weight: 400; text-align: left; background-color: rgb(0, 0, 0);&quot;&gt;Author&lt;/span&gt;" style="swimlane;whiteSpace=wrap;html=1;" vertex="1" parent="1">
                    <mxGeometry x="100" y="590" width="200" height="200" as="geometry"/>
                </mxCell>
                <mxCell id="9" value="&lt;span style=&quot;color: rgb(232, 230, 227); font-family: &amp;quot;Söhne Mono&amp;quot;, Monaco, &amp;quot;Andale Mono&amp;quot;, &amp;quot;Ubuntu Mono&amp;quot;, monospace; font-size: 14px; text-align: left; background-color: rgb(0, 0, 0);&quot;&gt;id (PK)&lt;br&gt;&lt;br&gt;&lt;/span&gt;&lt;span style=&quot;color: rgb(232, 230, 227); font-family: &amp;quot;Söhne Mono&amp;quot;, Monaco, &amp;quot;Andale Mono&amp;quot;, &amp;quot;Ubuntu Mono&amp;quot;, monospace; font-size: 14px; text-align: left; background-color: rgb(0, 0, 0);&quot;&gt;email &lt;br&gt;&lt;/span&gt;&lt;span style=&quot;color: rgb(232, 230, 227); font-family: &amp;quot;Söhne Mono&amp;quot;, Monaco, &amp;quot;Andale Mono&amp;quot;, &amp;quot;Ubuntu Mono&amp;quot;, monospace; font-size: 14px; text-align: left; background-color: rgb(0, 0, 0);&quot;&gt;&lt;br&gt;&lt;/span&gt;&lt;span style=&quot;color: rgb(232, 230, 227); font-family: &amp;quot;Söhne Mono&amp;quot;, Monaco, &amp;quot;Andale Mono&amp;quot;, &amp;quot;Ubuntu Mono&amp;quot;, monospace; font-size: 14px; text-align: left; background-color: rgb(0, 0, 0);&quot;&gt;password&lt;br&gt;&lt;/span&gt;&lt;span style=&quot;color: rgb(232, 230, 227); font-family: &amp;quot;Söhne Mono&amp;quot;, Monaco, &amp;quot;Andale Mono&amp;quot;, &amp;quot;Ubuntu Mono&amp;quot;, monospace; font-size: 14px; text-align: left; background-color: rgb(0, 0, 0);&quot;&gt;&lt;br&gt;&lt;/span&gt;&lt;span style=&quot;color: rgb(232, 230, 227); font-family: &amp;quot;Söhne Mono&amp;quot;, Monaco, &amp;quot;Andale Mono&amp;quot;, &amp;quot;Ubuntu Mono&amp;quot;, monospace; font-size: 14px; text-align: left; background-color: rgb(0, 0, 0);&quot;&gt;name&lt;/span&gt;&lt;span style=&quot;color: rgb(232, 230, 227); font-family: &amp;quot;Söhne Mono&amp;quot;, Monaco, &amp;quot;Andale Mono&amp;quot;, &amp;quot;Ubuntu Mono&amp;quot;, monospace; font-size: 14px; text-align: left; background-color: rgb(0, 0, 0);&quot;&gt;&lt;br&gt;&lt;/span&gt;" style="text;html=1;align=center;verticalAlign=middle;resizable=0;points=[];autosize=1;strokeColor=none;fillColor=none;" vertex="1" parent="8">
                    <mxGeometry x="50" y="35" width="90" height="130" as="geometry"/>
                </mxCell>
                <mxCell id="15" value="" style="endArrow=none;html=1;" edge="1" parent="1">
                    <mxGeometry width="50" height="50" relative="1" as="geometry">
                        <mxPoint x="190" y="320" as="sourcePoint"/>
                        <mxPoint x="190" y="160" as="targetPoint"/>
                    </mxGeometry>
                </mxCell>
                <mxCell id="17" value="" style="endArrow=none;html=1;" edge="1" parent="1">
                    <mxGeometry width="50" height="50" relative="1" as="geometry">
                        <mxPoint x="190" y="160" as="sourcePoint"/>
                        <mxPoint x="250" y="160" as="targetPoint"/>
                    </mxGeometry>
                </mxCell>
                <mxCell id="18" value="" style="endArrow=none;html=1;" edge="1" parent="1">
                    <mxGeometry width="50" height="50" relative="1" as="geometry">
                        <mxPoint x="500" y="320" as="sourcePoint"/>
                        <mxPoint x="500" y="160" as="targetPoint"/>
                    </mxGeometry>
                </mxCell>
                <mxCell id="19" value="" style="endArrow=none;html=1;" edge="1" parent="1">
                    <mxGeometry width="50" height="50" relative="1" as="geometry">
                        <mxPoint x="450" y="160" as="sourcePoint"/>
                        <mxPoint x="500" y="160" as="targetPoint"/>
                    </mxGeometry>
                </mxCell>
                <mxCell id="20" value="" style="endArrow=none;html=1;entryX=0.5;entryY=1;entryDx=0;entryDy=0;exitX=0.5;exitY=0;exitDx=0;exitDy=0;" edge="1" parent="1" source="8" target="6">
                    <mxGeometry width="50" height="50" relative="1" as="geometry">
                        <mxPoint x="190" y="590" as="sourcePoint"/>
                        <mxPoint x="240" y="540" as="targetPoint"/>
                    </mxGeometry>
                </mxCell>
            </root>
        </mxGraphModel>
    </diagram>
</mxfile>